<mxfile host="app.diagrams.net" modified="2024-02-25T16:07:57.724Z" agent="Mozilla/5.0 (X11; Linux x86_64) AppleWebKit/537.36 (KHTML, like Gecko) Chrome/116.0.0.0 Safari/537.36" etag="a3oUAqGHI51-0KcNG-Ee" version="23.1.4" type="device">
  <diagram name="Страница — 1" id="Z2tWQ2zvvdjTHhLuFM4Z">
    <mxGraphModel dx="1434" dy="762" grid="1" gridSize="10" guides="1" tooltips="1" connect="1" arrows="1" fold="1" page="1" pageScale="1" pageWidth="1654" pageHeight="2336" math="0" shadow="0">
      <root>
        <mxCell id="0" />
        <mxCell id="1" parent="0" />
        <mxCell id="JR0L8CZtBhfmKw3W3BkV-1" value="&lt;p style=&quot;margin:0px;margin-top:4px;text-align:center;&quot;&gt;&lt;b&gt;TourService&lt;/b&gt;&lt;/p&gt;&lt;hr size=&quot;1&quot;&gt;&lt;p style=&quot;margin:0px;margin-left:4px;&quot;&gt;+ create()&lt;br&gt;+ fetchByParam()&lt;/p&gt;&lt;p style=&quot;margin:0px;margin-left:4px;&quot;&gt;+ setSale()&lt;br&gt;+ delete()&lt;/p&gt;" style="verticalAlign=top;align=left;overflow=fill;html=1;whiteSpace=wrap;" vertex="1" parent="1">
          <mxGeometry x="400" y="160" width="110" height="100" as="geometry" />
        </mxCell>
        <mxCell id="JR0L8CZtBhfmKw3W3BkV-8" style="edgeStyle=orthogonalEdgeStyle;rounded=0;orthogonalLoop=1;jettySize=auto;html=1;entryX=0.5;entryY=1;entryDx=0;entryDy=0;" edge="1" parent="1" source="JR0L8CZtBhfmKw3W3BkV-2" target="JR0L8CZtBhfmKw3W3BkV-1">
          <mxGeometry relative="1" as="geometry" />
        </mxCell>
        <mxCell id="JR0L8CZtBhfmKw3W3BkV-2" value="Tour" style="swimlane;fontStyle=0;childLayout=stackLayout;horizontal=1;startSize=26;fillColor=none;horizontalStack=0;resizeParent=1;resizeParentMax=0;resizeLast=0;collapsible=1;marginBottom=0;whiteSpace=wrap;html=1;" vertex="1" parent="1">
          <mxGeometry x="397.5" y="330" width="115" height="78" as="geometry" />
        </mxCell>
        <mxCell id="JR0L8CZtBhfmKw3W3BkV-3" value="+ field: type" style="text;strokeColor=none;fillColor=none;align=left;verticalAlign=top;spacingLeft=4;spacingRight=4;overflow=hidden;rotatable=0;points=[[0,0.5],[1,0.5]];portConstraint=eastwest;whiteSpace=wrap;html=1;" vertex="1" parent="JR0L8CZtBhfmKw3W3BkV-2">
          <mxGeometry y="26" width="115" height="26" as="geometry" />
        </mxCell>
        <mxCell id="JR0L8CZtBhfmKw3W3BkV-4" value="+ field: type" style="text;strokeColor=none;fillColor=none;align=left;verticalAlign=top;spacingLeft=4;spacingRight=4;overflow=hidden;rotatable=0;points=[[0,0.5],[1,0.5]];portConstraint=eastwest;whiteSpace=wrap;html=1;" vertex="1" parent="JR0L8CZtBhfmKw3W3BkV-2">
          <mxGeometry y="52" width="115" height="26" as="geometry" />
        </mxCell>
        <mxCell id="JR0L8CZtBhfmKw3W3BkV-9" value="1" style="text;html=1;align=center;verticalAlign=middle;whiteSpace=wrap;rounded=0;" vertex="1" parent="1">
          <mxGeometry x="430" y="260" width="60" height="30" as="geometry" />
        </mxCell>
        <mxCell id="JR0L8CZtBhfmKw3W3BkV-10" value="*" style="text;html=1;align=center;verticalAlign=middle;whiteSpace=wrap;rounded=0;" vertex="1" parent="1">
          <mxGeometry x="430" y="310" width="60" height="30" as="geometry" />
        </mxCell>
        <mxCell id="JR0L8CZtBhfmKw3W3BkV-11" value="&lt;p style=&quot;margin:0px;margin-top:4px;text-align:center;&quot;&gt;&lt;b&gt;RequestService&lt;/b&gt;&lt;/p&gt;&lt;hr size=&quot;1&quot;&gt;&lt;p style=&quot;margin:0px;margin-left:4px;&quot;&gt;+ create()&lt;br&gt;+ fetchByParam()&lt;/p&gt;&lt;p style=&quot;margin:0px;margin-left:4px;&quot;&gt;+ reject()&lt;br&gt;+ apply()&lt;br&gt;+ delete()&lt;br&gt;&lt;/p&gt;" style="verticalAlign=top;align=left;overflow=fill;html=1;whiteSpace=wrap;" vertex="1" parent="1">
          <mxGeometry x="600" y="160" width="110" height="110" as="geometry" />
        </mxCell>
        <mxCell id="JR0L8CZtBhfmKw3W3BkV-12" style="edgeStyle=orthogonalEdgeStyle;rounded=0;orthogonalLoop=1;jettySize=auto;html=1;entryX=0.5;entryY=1;entryDx=0;entryDy=0;" edge="1" parent="1" source="JR0L8CZtBhfmKw3W3BkV-13">
          <mxGeometry relative="1" as="geometry">
            <mxPoint x="657.5" y="270" as="targetPoint" />
          </mxGeometry>
        </mxCell>
        <mxCell id="JR0L8CZtBhfmKw3W3BkV-13" value="Request" style="swimlane;fontStyle=0;childLayout=stackLayout;horizontal=1;startSize=26;fillColor=none;horizontalStack=0;resizeParent=1;resizeParentMax=0;resizeLast=0;collapsible=1;marginBottom=0;whiteSpace=wrap;html=1;" vertex="1" parent="1">
          <mxGeometry x="600" y="340" width="115" height="78" as="geometry" />
        </mxCell>
        <mxCell id="JR0L8CZtBhfmKw3W3BkV-14" value="+ field: type" style="text;strokeColor=none;fillColor=none;align=left;verticalAlign=top;spacingLeft=4;spacingRight=4;overflow=hidden;rotatable=0;points=[[0,0.5],[1,0.5]];portConstraint=eastwest;whiteSpace=wrap;html=1;" vertex="1" parent="JR0L8CZtBhfmKw3W3BkV-13">
          <mxGeometry y="26" width="115" height="26" as="geometry" />
        </mxCell>
        <mxCell id="JR0L8CZtBhfmKw3W3BkV-15" value="+ field: type" style="text;strokeColor=none;fillColor=none;align=left;verticalAlign=top;spacingLeft=4;spacingRight=4;overflow=hidden;rotatable=0;points=[[0,0.5],[1,0.5]];portConstraint=eastwest;whiteSpace=wrap;html=1;" vertex="1" parent="JR0L8CZtBhfmKw3W3BkV-13">
          <mxGeometry y="52" width="115" height="26" as="geometry" />
        </mxCell>
        <mxCell id="JR0L8CZtBhfmKw3W3BkV-16" value="1" style="text;html=1;align=center;verticalAlign=middle;whiteSpace=wrap;rounded=0;" vertex="1" parent="1">
          <mxGeometry x="632.5" y="270" width="60" height="30" as="geometry" />
        </mxCell>
        <mxCell id="JR0L8CZtBhfmKw3W3BkV-17" value="*" style="text;html=1;align=center;verticalAlign=middle;whiteSpace=wrap;rounded=0;" vertex="1" parent="1">
          <mxGeometry x="632.5" y="320" width="60" height="30" as="geometry" />
        </mxCell>
        <mxCell id="JR0L8CZtBhfmKw3W3BkV-18" value="&lt;p style=&quot;margin:0px;margin-top:4px;text-align:center;&quot;&gt;&lt;b&gt;AccountService&lt;/b&gt;&lt;/p&gt;&lt;hr size=&quot;1&quot;&gt;&lt;p style=&quot;margin:0px;margin-left:4px;&quot;&gt;+ create()&lt;br&gt;+ fetchByParam()&lt;/p&gt;&lt;p style=&quot;margin:0px;margin-left:4px;&quot;&gt;+ delete()&lt;br&gt;+ changeData()|&lt;br&gt;+ changePswd()&lt;/p&gt;&lt;p style=&quot;margin:0px;margin-left:4px;&quot;&gt;+ changeLogin()&lt;br&gt;+ getRequests()&lt;/p&gt;" style="verticalAlign=top;align=left;overflow=fill;html=1;whiteSpace=wrap;" vertex="1" parent="1">
          <mxGeometry x="827" y="140" width="153" height="140" as="geometry" />
        </mxCell>
        <mxCell id="JR0L8CZtBhfmKw3W3BkV-19" style="edgeStyle=orthogonalEdgeStyle;rounded=0;orthogonalLoop=1;jettySize=auto;html=1;entryX=0.5;entryY=1;entryDx=0;entryDy=0;" edge="1" parent="1" source="JR0L8CZtBhfmKw3W3BkV-20">
          <mxGeometry relative="1" as="geometry">
            <mxPoint x="884.5" y="280" as="targetPoint" />
          </mxGeometry>
        </mxCell>
        <mxCell id="JR0L8CZtBhfmKw3W3BkV-20" value="Account" style="swimlane;fontStyle=0;childLayout=stackLayout;horizontal=1;startSize=26;fillColor=none;horizontalStack=0;resizeParent=1;resizeParentMax=0;resizeLast=0;collapsible=1;marginBottom=0;whiteSpace=wrap;html=1;" vertex="1" parent="1">
          <mxGeometry x="827" y="350" width="115" height="78" as="geometry" />
        </mxCell>
        <mxCell id="JR0L8CZtBhfmKw3W3BkV-21" value="+ field: type" style="text;strokeColor=none;fillColor=none;align=left;verticalAlign=top;spacingLeft=4;spacingRight=4;overflow=hidden;rotatable=0;points=[[0,0.5],[1,0.5]];portConstraint=eastwest;whiteSpace=wrap;html=1;" vertex="1" parent="JR0L8CZtBhfmKw3W3BkV-20">
          <mxGeometry y="26" width="115" height="26" as="geometry" />
        </mxCell>
        <mxCell id="JR0L8CZtBhfmKw3W3BkV-22" value="+ field: type" style="text;strokeColor=none;fillColor=none;align=left;verticalAlign=top;spacingLeft=4;spacingRight=4;overflow=hidden;rotatable=0;points=[[0,0.5],[1,0.5]];portConstraint=eastwest;whiteSpace=wrap;html=1;" vertex="1" parent="JR0L8CZtBhfmKw3W3BkV-20">
          <mxGeometry y="52" width="115" height="26" as="geometry" />
        </mxCell>
        <mxCell id="JR0L8CZtBhfmKw3W3BkV-23" value="1" style="text;html=1;align=center;verticalAlign=middle;whiteSpace=wrap;rounded=0;" vertex="1" parent="1">
          <mxGeometry x="859.5" y="280" width="60" height="30" as="geometry" />
        </mxCell>
        <mxCell id="JR0L8CZtBhfmKw3W3BkV-24" value="*" style="text;html=1;align=center;verticalAlign=middle;whiteSpace=wrap;rounded=0;" vertex="1" parent="1">
          <mxGeometry x="859.5" y="330" width="60" height="30" as="geometry" />
        </mxCell>
      </root>
    </mxGraphModel>
  </diagram>
</mxfile>
